<svg xmlns="http://www.w3.org/2000/svg" width="900" height="760" viewBox="0 0 900 760"><rect width="900" height="760" fill="#171b1e"/><g transform="translate(450 380)"><circle r="205" fill="#272d31" stroke="#d91f26" stroke-width="10"/><circle r="132" fill="#101315" stroke="#686f74" stroke-width="20"/><circle r="48" fill="#d91f26"/><g fill="#4a5156"><rect x="-35" y="-285" width="70" height="85" rx="8"/><rect x="-35" y="200" width="70" height="85" rx="8" transform="rotate(180)"/><rect x="-285" y="-35" width="85" height="70" rx="8"/><rect x="200" y="-35" width="85" height="70" rx="8"/><rect x="-35" y="-285" width="70" height="85" rx="8" transform="rotate(45)"/><rect x="-35" y="-285" width="70" height="85" rx="8" transform="rotate(90)"/><rect x="-35" y="-285" width="70" height="85" rx="8" transform="rotate(135)"/><rect x="-35" y="-285" width="70" height="85" rx="8" transform="rotate(225)"/><rect x="-35" y="-285" width="70" height="85" rx="8" transform="rotate(270)"/><rect x="-35" y="-285" width="70" height="85" rx="8" transform="rotate(315)"/></g></g><path d="M90 650H810" stroke="#d91f26" stroke-width="8" opacity=".6"/></svg>
